<svg width="59" height="67" viewBox="0 0 59 67" fill="none" xmlns="http://www.w3.org/2000/svg">
<path fill-rule="evenodd" clip-rule="evenodd" d="M23 24C29.6274 24 35 18.6274 35 12C35 5.37258 29.6274 0 23 0C18.6918 0 14.9139 2.27032 12.7973 5.67981C4.99049 12.0049 0 21.6696 0 32.5C0 51.5538 15.4462 67 34.5 67C38.5999 67 42.5328 66.2848 46.1807 64.9725C46.4514 64.9907 46.7246 65 47 65C53.6274 65 59 59.6274 59 53C59 46.3726 53.6274 41 47 41C40.7094 41 35.5493 45.8404 35.0411 52L35 52C23.9543 52 15 43.0457 15 32C15 28.5975 15.8496 25.3935 17.3484 22.5885C19.0325 23.4893 20.9566 24 23 24Z" fill="#EB2D90"/>
</svg>
